<svg xmlns="http://www.w3.org/2000/svg" width="48" height="48" viewBox="0 0 48 48" role="img" aria-labelledby="title">
  <title id="title">Gayathri Palraj favicon</title>
  <rect width="48" height="48" rx="14" fill="#ffffff"/>
  <rect x="2" y="2" width="44" height="44" rx="12" fill="none" stroke="#ec4899" stroke-width="3"/>
  <path d="M24.6 38c-8 0-14-5.9-14-14s6-14 14.3-14c4.4 0 8 1.6 10.6 4.6l-4.1 4c-1.7-1.8-3.7-2.7-6.2-2.7-4.7 0-8 3.3-8 8.1s3.3 8.1 7.9 8.1c2 0 3.8-.5 5.3-1.6v-4.2h-6.1v-5.2h12.2v12.2c-2.9 3.1-7.1 4.7-11.9 4.7Z" fill="#ec4899"/>
</svg>
